<?xml version="1.0" encoding="UTF-8"?>
<svg xmlns="http://www.w3.org/2000/svg" xmlns:xlink="http://www.w3.org/1999/xlink" viewBox="0 0 512 512" width="512px" height="512px">
<defs>
<radialGradient id="radial0" gradientUnits="userSpaceOnUse" cx="130.066528" cy="126.831909" fx="130.066528" fy="126.831909" r="91.8125" gradientTransform="matrix(2.265487,0,0,2.265487,0,0)">
<stop offset="0" style="stop-color:rgb(95.686275%,87.843138%,61.56863%);stop-opacity:1;"/>
<stop offset="0.226" style="stop-color:rgb(97.254902%,90.980393%,70.980394%);stop-opacity:1;"/>
<stop offset="0.513" style="stop-color:rgb(98.823529%,94.117647%,80.392158%);stop-opacity:1;"/>
<stop offset="0.778" style="stop-color:rgb(99.607843%,95.686275%,86.274511%);stop-opacity:1;"/>
<stop offset="1" style="stop-color:rgb(100%,96.470588%,88.235295%);stop-opacity:1;"/>
</radialGradient>
<radialGradient id="radial1" gradientUnits="userSpaceOnUse" cx="110.941277" cy="105.644409" fx="110.941277" fy="105.644409" r="101.594063" gradientTransform="matrix(2.265487,0,0,2.265487,0,0)">
<stop offset="0" style="stop-color:rgb(95.686275%,87.843138%,61.56863%);stop-opacity:1;"/>
<stop offset="0.226" style="stop-color:rgb(97.254902%,90.980393%,70.980394%);stop-opacity:1;"/>
<stop offset="0.513" style="stop-color:rgb(98.823529%,94.117647%,80.392158%);stop-opacity:1;"/>
<stop offset="0.778" style="stop-color:rgb(99.607843%,95.686275%,86.274511%);stop-opacity:1;"/>
<stop offset="1" style="stop-color:rgb(100%,96.470588%,88.235295%);stop-opacity:1;"/>
</radialGradient>
<radialGradient id="radial2" gradientUnits="userSpaceOnUse" cx="113" cy="113" fx="113" fy="113" r="113" gradientTransform="matrix(2.265487,0,0,2.265487,0,0)">
<stop offset="0" style="stop-color:rgb(95.686275%,87.843138%,61.56863%);stop-opacity:1;"/>
<stop offset="0.226" style="stop-color:rgb(97.254902%,90.980393%,70.980394%);stop-opacity:1;"/>
<stop offset="0.513" style="stop-color:rgb(98.823529%,94.117647%,80.392158%);stop-opacity:1;"/>
<stop offset="0.778" style="stop-color:rgb(99.607843%,95.686275%,86.274511%);stop-opacity:1;"/>
<stop offset="1" style="stop-color:rgb(100%,96.470588%,88.235295%);stop-opacity:1;"/>
</radialGradient>
<linearGradient id="linear0" gradientUnits="userSpaceOnUse" x1="114.765633" y1="4.33991" x2="114.765633" y2="227.684402" gradientTransform="matrix(2.265487,0,0,2.265487,0,0)">
<stop offset="0" style="stop-color:rgb(81.568629%,11.764706%,40.000001%);stop-opacity:1;"/>
<stop offset="0.63" style="stop-color:rgb(57.647061%,5.882353%,23.529412%);stop-opacity:1;"/>
<stop offset="1" style="stop-color:rgb(31.37255%,2.745098%,14.901961%);stop-opacity:1;"/>
<stop offset="1" style="stop-color:rgb(31.37255%,2.745098%,14.901961%);stop-opacity:1;"/>
</linearGradient>
</defs>
<g id="surface946515">
<path style=" stroke:none;fill-rule:nonzero;fill:url(#radial0);" d="M 80 64 C 97.671875 64 112 49.671875 112 32 C 112 14.328125 97.671875 0 80 0 C 62.328125 0 48 14.328125 48 32 C 48 49.671875 62.328125 64 80 64 Z M 80 64 "/>
<path style=" stroke:none;fill-rule:nonzero;fill:url(#radial1);" d="M 60 512 C 75.464844 512 88 499.464844 88 484 C 88 468.535156 75.464844 456 60 456 C 44.535156 456 32 468.535156 32 484 C 32 499.464844 44.535156 512 60 512 Z M 60 512 "/>
<path style=" stroke:none;fill-rule:nonzero;fill:url(#radial2);" d="M 496 164 C 496 144.121094 479.878906 128 460 128 L 392 128 C 374.328125 128 360 113.671875 360 96 C 360 78.328125 374.328125 64 392 64 L 408 64 C 425.671875 64 440 49.671875 440 32 C 440 14.328125 425.671875 0 408 0 L 160 0 C 142.328125 0 128 14.328125 128 32 C 128 49.671875 142.328125 64 160 64 L 176 64 C 189.257812 64 200 74.742188 200 88 C 200 101.257812 189.257812 112 176 112 L 60 112 C 44.535156 112 32 124.535156 32 140 C 32 155.464844 44.535156 168 60 168 L 72 168 C 85.257812 168 96 178.742188 96 192 C 96 205.257812 85.257812 216 72 216 L 40 216 C 17.910156 216 0 233.910156 0 256 C 0 278.089844 17.910156 296 40 296 L 60 296 C 75.464844 296 88 308.535156 88 324 C 88 339.464844 75.464844 352 60 352 L 48 352 C 30.328125 352 16 366.328125 16 384 C 16 401.671875 30.328125 416 48 416 L 140 416 C 151.046875 416 160 424.953125 160 436 C 160 447.046875 151.046875 456 140 456 C 124.535156 456 112 468.535156 112 484 C 112 499.464844 124.535156 512 140 512 L 380 512 C 395.464844 512 408 499.464844 408 484 C 408 468.535156 395.464844 456 380 456 L 376 456 C 367.160156 456 360 448.839844 360 440 C 360 431.160156 367.160156 424 376 424 L 480 424 C 497.671875 424 512 409.671875 512 392 C 512 374.328125 497.671875 360 480 360 L 452 360 C 440.953125 360 432 351.046875 432 340 C 432 328.953125 440.953125 320 452 320 L 456 320 C 473.671875 320 488 305.671875 488 288 C 488 270.328125 473.671875 256 456 256 L 420 256 C 404.535156 256 392 243.464844 392 228 C 392 212.535156 404.535156 200 420 200 L 460 200 C 479.878906 200 496 183.878906 496 164 Z M 496 164 "/>
<path style=" stroke:none;fill-rule:nonzero;fill:url(#linear0);" d="M 116 224 L 404 224 C 419.464844 224 432 236.535156 432 252 C 432 267.464844 419.464844 280 404 280 L 116 280 C 100.535156 280 88 267.464844 88 252 C 88 236.535156 100.535156 224 116 224 Z M 88 132 C 88 147.464844 100.535156 160 116 160 L 404 160 C 419.464844 160 432 147.464844 432 132 C 432 116.535156 419.464844 104 404 104 L 116 104 C 100.535156 104 88 116.535156 88 132 Z M 88 372 C 88 387.464844 100.535156 400 116 400 L 404 400 C 419.464844 400 432 387.464844 432 372 C 432 356.535156 419.464844 344 404 344 L 116 344 C 100.535156 344 88 356.535156 88 372 Z M 88 372 "/>
</g>
</svg>
